# xmcd
#
# Track frame offsets:
#	150
#	22964
#	34771
#	53335
#	69416
#	89611
#	121513
#	161322
#	173198
#	186542
#	197113
#	206830
#	218148
#	236437
#
# Disc length: 3368 seconds
#
# Revision: 0
# Processed by: cddbd v1.5.2PL0 Copyright (c) Steve Scherf et al.
# Submitted via: EasyCDDAExtractor 10.0.5.1
#
DISCID=b90d260e
DTITLE=Kinky Friedman - Live From Austin TX
DYEAR=1975
DGENRE=Country
TTITLE0=Amelia Earhart's Last Flight
TTITLE1=Rapid City, South Dakota
TTITLE2=Homo Erectus
TTITLE3=Men's Room L.A.
TTITLE4=Highway Cafe
TTITLE5=Wild Man From Borneo
TTITLE6=Carryin' The torch
TTITLE7=Miss Nickelodian
TTITLE8=Lover Please
TTITLE9=Rock 'N' Roll Across The U.S.A.
TTITLE10=Mama Baby Mama
TTITLE11=Arsehole From El Paso
TTITLE12=They Ain't Making Jews Like Jesus Anymore
TTITLE13=Ride 'Em Jewboy
EXTD=
EXTT0=
EXTT1=
EXTT2=
EXTT3=
EXTT4=
EXTT5=
EXTT6=
EXTT7=
EXTT8=
EXTT9=
EXTT10=
EXTT11=
EXTT12=
EXTT13=
PLAYORDER=
